<svg width="744" height="438" viewBox="0 0 744 438" fill="none" xmlns="http://www.w3.org/2000/svg">
<g clip-path="url(#clip0_8_60)">
<path fill-rule="evenodd" clip-rule="evenodd" d="M630.526 302.675L567.927 285.251H496.655L433.904 302.688C408.47 309.74 390.855 332.887 390.848 359.277V438H673.472V359.27C673.472 332.873 655.905 309.72 630.526 302.654V302.675Z" fill="#EDEFF1"/>
<path fill-rule="evenodd" clip-rule="evenodd" d="M597.363 292.441L567.831 284.252H497.164L467.632 292.441L508.552 353.065L532.511 323.128L556.471 353.072L597.363 292.441Z" fill="#D3D3D3"/>
<path fill-rule="evenodd" clip-rule="evenodd" d="M473.418 291.236L434.042 302.179C408.511 309.265 390.841 332.501 390.841 358.988V438H532.387L496.999 379.035L473.405 291.242H473.418V291.236Z" fill="#199254"/>
<path fill-rule="evenodd" clip-rule="evenodd" d="M591.018 291.463L630.333 302.385C655.822 309.465 673.465 332.66 673.465 359.112V438H532.139L567.472 379.125L591.018 291.463Z" fill="#199254"/>
<path fill-rule="evenodd" clip-rule="evenodd" d="M639.882 305.939C641.59 312.853 644.855 319.286 649.437 324.733C649.23 325.25 649.058 325.78 648.913 326.317C631.484 335.463 620.558 353.534 620.538 373.237V403.387C620.538 405.136 619.842 406.824 618.602 408.056L614.145 412.519C607.139 419.502 606.96 430.803 613.738 438H673.465V359.112C673.472 336.385 660.397 315.684 639.882 305.939Z" fill="#2D9660"/>
<path d="M449.769 403.056H437.782V438H449.769V403.056Z" fill="#2D9660"/>
<path fill-rule="evenodd" clip-rule="evenodd" d="M567.61 243.317V284.528L532.16 313.969L496.71 284.528V243.317H567.61Z" fill="#6B594C"/>
<path fill-rule="evenodd" clip-rule="evenodd" d="M598.569 160.717V197.059C598.569 233.848 568.836 263.675 532.16 263.675C495.483 263.675 465.751 233.848 465.751 197.059V160.717C465.765 147.336 476.587 136.496 489.931 136.496H574.437C587.753 136.51 598.555 147.343 598.569 160.717Z" fill="#6B594C"/>
<path fill-rule="evenodd" clip-rule="evenodd" d="M574.437 100.547H573.583C570.855 89.976 561.265 82.5865 550.271 82.5796H525.671C492.576 82.5796 465.744 109.404 465.744 142.488V142.481V196.398L477.827 160.449H550.271C561.252 160.428 570.834 153.038 573.562 142.481H576.807C582.463 142.488 587.361 146.386 588.594 151.868L598.576 196.405V124.513C598.555 111.284 587.753 100.568 574.437 100.547Z" fill="black"/>
<path fill-rule="evenodd" clip-rule="evenodd" d="M497.123 272.965L473.563 291.291L508.896 343.61L532.456 314.175L497.123 272.965Z" fill="#EDEFF1"/>
<path fill-rule="evenodd" clip-rule="evenodd" d="M567.803 272.965L591.363 291.291L556.03 343.61L532.477 314.175L567.803 272.965Z" fill="#EDEFF1"/>
<path fill-rule="evenodd" clip-rule="evenodd" d="M556.016 343.61L532.463 314.176L508.91 343.61L520.69 361.274L513.767 409.413L532.47 437.814L551.174 409.413L544.25 361.274L556.016 343.61Z" fill="#481B90"/>
<path fill-rule="evenodd" clip-rule="evenodd" d="M698.596 328.177C698.596 328.177 721.315 304.975 711.051 296.931C703.955 291.367 696.729 300.264 692.368 293.805C685.789 284.094 679.913 284.432 679.913 284.432C679.913 284.432 674.03 284.094 667.451 293.805C663.083 300.257 655.85 291.36 648.768 296.931C638.511 304.961 661.223 328.177 661.223 328.177H698.596Z" fill="#481B90"/>
<path fill-rule="evenodd" clip-rule="evenodd" d="M702.336 320.077C698.554 318.459 694.593 317.33 690.535 316.696C693.029 313.941 694.676 310.525 695.282 306.862L689.509 305.76C689.151 310.567 685.727 314.596 681.036 315.718C680.657 315.718 680.25 315.677 679.933 315.677C679.616 315.677 679.251 315.677 678.914 315.704C674.188 314.637 670.716 310.594 670.365 305.76L664.599 306.862C665.198 310.525 666.831 313.934 669.311 316.696C665.246 317.33 661.285 318.466 657.496 320.077C656.732 320.422 656.022 320.869 655.381 321.407C658.516 325.394 661.237 328.183 661.237 328.183H698.623C698.623 328.183 701.344 325.401 704.485 321.407C703.831 320.863 703.108 320.415 702.336 320.077Z" fill="#2F0C69"/>
<path fill-rule="evenodd" clip-rule="evenodd" d="M679.465 335.167H704.423V329.402C704.41 326.916 702.935 324.664 700.662 323.659C687.057 318.184 671.86 318.184 658.254 323.659C655.974 324.671 654.5 326.916 654.486 329.402V335.167H679.465Z" fill="#199254"/>
<path fill-rule="evenodd" clip-rule="evenodd" d="M681.463 326.179H685.458C711.416 326.234 732.427 347.315 732.392 373.264V403.428C732.392 406.741 733.701 409.909 736.03 412.257L740.487 416.713C742.822 419.055 744.131 422.229 744.131 425.528C744.145 432.408 738.572 437.986 731.697 437.993C731.69 437.993 734.652 437.993 734.645 437.993H628.246C621.226 437.986 615.543 432.401 615.55 425.528C615.55 425.521 615.55 425.521 615.55 425.521C615.543 422.209 616.886 419.041 619.277 416.706L623.81 412.25C626.193 409.909 627.537 406.734 627.537 403.422V373.264C627.495 347.301 648.954 326.214 675.469 326.172H681.463V326.179Z" fill="#481B90"/>
<path d="M679.899 402.017C692.865 402.017 703.377 391.472 703.377 378.464C703.377 365.456 692.865 354.911 679.899 354.911C666.933 354.911 656.422 365.456 656.422 378.464C656.422 391.472 666.933 402.017 679.899 402.017Z" fill="#199254"/>
<path fill-rule="evenodd" clip-rule="evenodd" d="M682.634 376.102H676.379C674.443 376.081 672.907 374.497 672.927 372.562C672.948 370.668 674.484 369.132 676.379 369.112H682.964C684.886 369.105 686.45 370.668 686.457 372.589V372.107H692.196C692.202 367.149 688.186 363.134 683.226 363.12H682.462V360.124H676.468V363.12H676.303C671.336 363.223 667.396 367.321 667.492 372.286C667.588 377.114 671.481 380.998 676.303 381.095H682.937C684.873 381.115 686.409 382.699 686.388 384.634C686.368 386.528 684.831 388.064 682.937 388.085H676.654C675.001 388.078 673.664 386.742 673.658 385.089H667.733C667.726 390.047 671.742 394.069 676.709 394.076H676.468V397.072H682.462V394.076H682.641C687.608 393.98 691.548 389.882 691.452 384.917C691.355 380.082 687.463 376.191 682.634 376.102Z" fill="white"/>
<path fill-rule="evenodd" clip-rule="evenodd" d="M295.244 271.298L218.13 249.832H130.338L53.0376 271.312C21.7069 280.003 0.0137778 308.514 0 341.02V438H348.144V341.02C348.144 308.508 326.506 279.982 295.244 271.284V271.298Z" fill="#EDEFF1"/>
<path fill-rule="evenodd" clip-rule="evenodd" d="M254.393 258.695L218.013 248.606H130.972L94.5913 258.695L144.997 333.376L174.509 296.49L204.021 333.376L254.393 258.695Z" fill="#D3D3D3"/>
<path fill-rule="evenodd" clip-rule="evenodd" d="M101.721 257.215L53.2167 270.692C21.7689 279.425 0 308.046 0 340.676V438H174.358L130.765 365.365L101.701 257.215H101.721Z" fill="#199254"/>
<path fill-rule="evenodd" clip-rule="evenodd" d="M246.581 257.49L295.017 270.947C326.416 279.666 348.144 308.246 348.151 340.82V438H174.055L217.579 365.475L246.581 257.49Z" fill="#199254"/>
<path fill-rule="evenodd" clip-rule="evenodd" d="M306.769 275.327C308.87 283.846 312.893 291.766 318.542 298.481C318.287 299.114 318.074 299.768 317.895 300.429C296.422 311.696 282.961 333.961 282.947 358.23V395.371C282.947 397.526 282.093 399.599 280.564 401.121L275.073 406.61C266.448 415.212 266.221 429.13 274.57 438H348.144V340.827C348.144 312.826 332.038 287.331 306.769 275.327Z" fill="#2D9660"/>
<path d="M72.5812 394.958H57.8184V438H72.5812V394.958Z" fill="#2D9660"/>
<path fill-rule="evenodd" clip-rule="evenodd" d="M217.744 198.188V248.951L174.075 285.216L130.407 248.951V198.188H217.744Z" fill="#6B594C"/>
<path fill-rule="evenodd" clip-rule="evenodd" d="M255.881 96.4357V141.2C255.881 186.522 219.253 223.256 174.076 223.256C128.898 223.256 92.27 186.515 92.27 141.2V96.4357C92.2907 79.9487 105.614 66.5952 122.051 66.5952H226.149C242.565 66.6228 255.86 79.9694 255.881 96.4357Z" fill="#6B594C"/>
<path fill-rule="evenodd" clip-rule="evenodd" d="M226.156 22.3201H225.102C221.74 9.30403 209.925 0.1928 196.389 0.185913H166.091C125.323 0.185913 92.27 33.2287 92.27 73.9848V73.9779V140.394L107.157 96.112H196.389C209.918 96.0914 221.719 86.9802 225.081 73.9779H229.076C236.048 73.9848 242.076 78.7918 243.591 85.5408L255.888 140.401V51.8369C255.867 35.5427 242.572 22.3407 226.156 22.3201Z" fill="black"/>
<path fill-rule="evenodd" clip-rule="evenodd" d="M130.916 234.709L101.9 257.277L145.424 321.73L174.44 285.471L130.916 234.709Z" fill="#EDEFF1"/>
<path fill-rule="evenodd" clip-rule="evenodd" d="M217.978 234.709L247.001 257.277L203.477 321.73L174.468 285.471L217.978 234.709Z" fill="#EDEFF1"/>
<path fill-rule="evenodd" clip-rule="evenodd" d="M203.463 321.73L174.447 285.471L145.431 321.73L159.939 343.486L151.411 402.788L174.454 437.766L197.497 402.788L188.969 343.486L203.463 321.73Z" fill="#481B90"/>
<path fill-rule="evenodd" clip-rule="evenodd" d="M379.095 302.723C379.095 302.723 407.085 274.149 394.437 264.232C385.695 257.38 376.795 268.337 371.421 260.383C363.32 248.42 356.08 248.84 356.08 248.84C356.08 248.84 348.826 248.42 340.731 260.383C335.351 268.33 326.437 257.373 317.716 264.232C305.081 274.129 333.064 302.723 333.064 302.723H379.095Z" fill="#481B90"/>
<path fill-rule="evenodd" clip-rule="evenodd" d="M383.697 292.737C379.041 290.747 374.156 289.349 369.155 288.57C372.227 285.175 374.253 280.974 375.004 276.457L367.894 275.1C367.453 281.022 363.237 285.981 357.458 287.365C356.996 287.365 356.486 287.317 356.101 287.317C355.715 287.317 355.26 287.317 354.847 287.358C349.026 286.036 344.748 281.064 344.314 275.107L337.211 276.463C337.948 280.974 339.967 285.175 343.019 288.577C338.01 289.356 333.126 290.76 328.469 292.744C327.532 293.171 326.657 293.722 325.865 294.383C329.723 299.3 333.078 302.73 333.078 302.73H379.13C379.13 302.73 382.485 299.3 386.35 294.383C385.544 293.708 384.648 293.157 383.697 292.737Z" fill="#2F0C69"/>
<path fill-rule="evenodd" clip-rule="evenodd" d="M355.528 311.331H386.274V304.231C386.253 301.166 384.441 298.398 381.637 297.151C364.884 290.402 346.16 290.402 329.406 297.151C326.595 298.391 324.783 301.166 324.763 304.231V311.331H355.528Z" fill="#199254"/>
<path fill-rule="evenodd" clip-rule="evenodd" d="M357.995 300.257H362.913C394.892 300.326 420.773 326.289 420.725 358.258V395.419C420.725 399.496 422.337 403.401 425.21 406.293L430.693 411.775C433.573 414.661 435.185 418.566 435.185 422.636C435.199 431.106 428.337 437.979 419.864 437.993C419.857 437.993 423.501 437.993 423.501 437.993H292.433C283.781 437.986 276.782 431.106 276.789 422.643C276.789 422.636 276.789 422.636 276.789 422.636C276.782 418.559 278.435 414.654 281.377 411.775L286.957 406.293C289.898 403.408 291.545 399.496 291.545 395.419V358.272C291.489 326.289 317.929 300.312 350.589 300.264H357.995V300.257Z" fill="#481B90"/>
<path d="M356.066 393.663C372.038 393.663 384.986 380.676 384.986 364.656C384.986 348.635 372.038 335.648 356.066 335.648C340.094 335.648 327.146 348.635 327.146 364.656C327.146 380.676 340.094 393.663 356.066 393.663Z" fill="#199254"/>
<path fill-rule="evenodd" clip-rule="evenodd" d="M359.435 361.749H351.733C349.349 361.722 347.455 359.773 347.483 357.39C347.51 355.055 349.398 353.168 351.733 353.141H359.841C362.211 353.134 364.133 355.055 364.14 357.424V356.832H371.208C371.215 350.73 366.269 345.779 360.158 345.765H359.214V342.074H351.836V345.765H351.63C345.512 345.889 340.656 350.944 340.78 357.053C340.897 362.996 345.691 367.782 351.63 367.899H359.8C362.183 367.927 364.078 369.876 364.05 372.259C364.023 374.593 362.135 376.48 359.8 376.508H352.057C350.018 376.501 348.371 374.855 348.364 372.816H341.069C341.062 378.925 346.015 383.877 352.119 383.883H351.823V387.575H359.201V383.883H359.421C365.538 383.766 370.395 378.718 370.278 372.603C370.181 366.66 365.387 361.86 359.435 361.749Z" fill="white"/>
</g>
<defs>
<clipPath id="clip0_8_60">
<rect width="744" height="438" fill="white"/>
</clipPath>
</defs>
</svg>
