<svg width="148" height="82" viewBox="0 0 148 82" fill="none" xmlns="http://www.w3.org/2000/svg">
<g clip-path="url(#clip0_8_16)">
<path fill-rule="evenodd" clip-rule="evenodd" d="M31.183 6.38696C36.883 6.38667 42.474 7.94903 47.3481 10.9042C52.2222 13.8593 56.1929 18.0941 58.8285 23.1482C61.4641 28.2023 62.6637 33.8821 62.2969 39.5703C61.9301 45.2585 60.0109 50.7373 56.748 55.411L62.166 66.182C62.3338 66.5119 62.3931 66.8865 62.3355 67.2522C62.2778 67.6179 62.1062 67.956 61.8449 68.2183C61.5837 68.4806 61.2463 68.6538 60.8809 68.7129C60.5154 68.7721 60.1406 68.7144 59.81 68.548L48.979 63.16C44.9617 65.9533 40.3433 67.7619 35.4975 68.4395C30.6517 69.1171 25.7144 68.6448 21.0849 67.0606C16.4555 65.4764 12.2639 62.825 8.84907 59.3206C5.43428 55.8162 2.8922 51.5574 1.42841 46.8885C-0.0353837 42.2196 -0.379781 37.2717 0.423067 32.4451C1.22592 27.6184 3.15347 23.0484 6.04984 19.1048C8.94621 15.1611 12.7301 11.9545 17.0954 9.74426C21.4607 7.53402 26.285 6.3822 31.178 6.38196L31.183 6.38696Z" fill="#199254"/>
<path fill-rule="evenodd" clip-rule="evenodd" d="M48.9841 63.166C42.3216 67.8039 34.1129 69.6604 26.1031 68.341C18.0933 67.0215 10.9138 62.6302 6.09095 56.1004C1.26808 49.5706 -0.817907 41.4172 0.276407 33.3735C1.37072 25.3298 5.55904 18.0301 11.9511 13.026C12.5889 13.7422 12.9287 14.6753 12.9006 15.634C12.8725 16.5927 12.4788 17.5043 11.8001 18.182C7.25888 22.7319 4.46036 28.7324 3.89324 35.1357C3.32611 41.539 5.02643 47.938 8.69724 53.2152C12.368 58.4924 17.776 62.3124 23.9767 64.0079C30.1774 65.7035 36.7767 65.167 42.6221 62.492C44.0955 61.8134 45.5063 61.0063 46.8381 60.08C47.4682 59.6381 48.2194 59.4013 48.9891 59.402C49.5697 59.4027 50.1425 59.5368 50.6631 59.794L61.7141 65.294L62.1661 66.194C62.3315 66.5234 62.3892 66.8966 62.3308 67.2606C62.2725 67.6246 62.1011 67.9611 61.841 68.2223C61.5808 68.4836 61.2451 68.6564 60.8814 68.7162C60.5176 68.7761 60.1442 68.7201 59.8141 68.556L48.9791 63.166H48.9841Z" fill="#2DA266"/>
<path fill-rule="evenodd" clip-rule="evenodd" d="M29.4893 33.048C29.7386 33.048 29.9776 32.9489 30.1539 32.7726C30.3302 32.5964 30.4292 32.3573 30.4292 32.108C30.4292 31.8587 30.3302 31.6196 30.1539 31.4433C29.9776 31.267 29.7386 31.168 29.4893 31.168H23.8462C23.5971 31.1685 23.3583 31.2677 23.1822 31.4439C23.006 31.62 22.9068 31.8588 22.9062 32.108V43.275C22.9068 43.5241 23.006 43.7629 23.1822 43.9391C23.3583 44.1152 23.5971 44.2144 23.8462 44.215H29.4902C29.6137 44.215 29.7359 44.1907 29.85 44.1434C29.964 44.0962 30.0676 44.0269 30.1549 43.9396C30.2422 43.8524 30.3115 43.7487 30.3587 43.6347C30.4059 43.5206 30.4303 43.3984 30.4303 43.275C30.4303 43.1515 30.4059 43.0293 30.3587 42.9152C30.3115 42.8012 30.2422 42.6976 30.1549 42.6103C30.0676 42.523 29.964 42.4538 29.85 42.4065C29.7359 42.3593 29.6137 42.335 29.4902 42.335H24.7902V36.817H27.6143C27.8636 36.817 28.1026 36.7179 28.2789 36.5416C28.4552 36.3654 28.5542 36.1263 28.5542 35.877C28.5542 35.6277 28.4552 35.3886 28.2789 35.2123C28.1026 35.036 27.8636 34.937 27.6143 34.937H24.7863V33.058H29.4863L29.4893 33.048Z" fill="white"/>
<path fill-rule="evenodd" clip-rule="evenodd" d="M39.024 42.335H34.194V32.108C34.194 31.8587 34.0949 31.6196 33.9186 31.4433C33.7424 31.267 33.5033 31.168 33.254 31.168C33.0047 31.168 32.7656 31.267 32.5893 31.4433C32.413 31.6196 32.314 31.8587 32.314 32.108V43.275C32.3145 43.5241 32.4137 43.7629 32.5899 43.9391C32.766 44.1152 33.0048 44.2144 33.254 44.215H39.024C39.2733 44.215 39.5124 44.1159 39.6886 43.9396C39.8649 43.7634 39.964 43.5243 39.964 43.275C39.964 43.0257 39.8649 42.7866 39.6886 42.6103C39.5124 42.434 39.2733 42.335 39.024 42.335Z" fill="white"/>
<path fill-rule="evenodd" clip-rule="evenodd" d="M19.9561 31.168C19.707 31.1685 19.4682 31.2677 19.292 31.4439C19.1159 31.62 19.0167 31.8588 19.0161 32.108V34.932H13.4991V32.108C13.4991 31.8587 13.4001 31.6196 13.2238 31.4433C13.0475 31.267 12.8084 31.168 12.5591 31.168C12.3098 31.168 12.0707 31.267 11.8945 31.4433C11.7182 31.6196 11.6191 31.8587 11.6191 32.108V43.275C11.6191 43.5243 11.7182 43.7634 11.8945 43.9396C12.0707 44.1159 12.3098 44.215 12.5591 44.215C12.8084 44.215 13.0475 44.1159 13.2238 43.9396C13.4001 43.7634 13.4991 43.5243 13.4991 43.275V36.812H19.0171V43.275C19.0171 43.5243 19.1162 43.7634 19.2925 43.9396C19.4687 44.1159 19.7078 44.215 19.9571 44.215C20.2064 44.215 20.4455 44.1159 20.6218 43.9396C20.7981 43.7634 20.8971 43.5243 20.8971 43.275V32.108C20.8974 31.9845 20.8733 31.8621 20.8261 31.7479C20.779 31.6338 20.7097 31.53 20.6224 31.4427C20.5351 31.3554 20.4313 31.2861 20.3172 31.239C20.203 31.1918 20.0797 31.1677 19.9561 31.168Z" fill="white"/>
<path fill-rule="evenodd" clip-rule="evenodd" d="M46.2701 31.043H42.7881C42.539 31.0435 42.3002 31.1427 42.124 31.3189C41.9479 31.4951 41.8487 31.7338 41.8481 31.983V43.273C41.8481 43.5223 41.9472 43.7614 42.1235 43.9377C42.2997 44.1139 42.5388 44.213 42.7881 44.213C43.0374 44.213 43.2765 44.1139 43.4528 43.9377C43.6291 43.7614 43.7281 43.5223 43.7281 43.273V39.948H46.2711C46.8615 39.9568 47.4477 39.8482 47.9956 39.6284C48.5436 39.4086 49.0424 39.0821 49.4629 38.6677C49.8835 38.2534 50.2175 37.7596 50.4455 37.215C50.6735 36.6704 50.7909 36.0859 50.7909 35.4955C50.7909 34.9051 50.6735 34.3206 50.4455 33.776C50.2175 33.2314 49.8835 32.7376 49.4629 32.3232C49.0424 31.9089 48.5436 31.5823 47.9956 31.3626C47.4477 31.1428 46.8605 31.0341 46.2701 31.043ZM46.2701 38.069H43.7281V32.923H46.2711C46.609 32.923 46.9436 32.9895 47.2558 33.1188C47.568 33.2481 47.8516 33.4377 48.0905 33.6766C48.3295 33.9155 48.519 34.1992 48.6483 34.5113C48.7776 34.8235 48.8441 35.1581 48.8441 35.496C48.8441 35.8339 48.7776 36.1685 48.6483 36.4806C48.519 36.7928 48.3295 37.0764 48.0905 37.3154C47.8516 37.5543 47.568 37.7438 47.2558 37.8731C46.9436 38.0024 46.608 38.069 46.2701 38.069Z" fill="white"/>
<path fill-rule="evenodd" clip-rule="evenodd" d="M107.049 1.03188e-07C99.5674 -0.000159448 92.229 2.05067 85.8315 5.92954C79.4341 9.8084 74.2224 15.3668 70.7631 22.0006C67.3039 28.6343 65.7294 36.0894 66.2108 43.5554C66.6923 51.0214 69.2112 58.2125 73.4939 64.347L66.3829 78.494C66.1659 78.9263 66.0904 79.4159 66.167 79.8934C66.2436 80.371 66.4684 80.8124 66.8096 81.1552C67.1508 81.498 67.5912 81.7248 68.0685 81.8035C68.5457 81.8823 69.0356 81.809 69.4689 81.594L83.6859 74.523C88.9589 78.1892 95.0208 80.5628 101.381 81.4519C107.742 82.341 114.222 81.7207 120.298 79.6411C126.375 77.5614 131.876 74.0809 136.358 69.4809C140.84 64.881 144.176 59.2908 146.097 53.1625C148.017 47.0342 148.469 40.5399 147.415 34.2047C146.36 27.8696 143.83 21.8715 140.027 16.6957C136.225 11.5198 131.258 7.31149 125.528 4.41106C119.798 1.51064 113.466 -0.000455928 107.044 1.03188e-07L107.049 1.03188e-07Z" fill="#EDEFF1"/>
<path fill-rule="evenodd" clip-rule="evenodd" d="M83.6849 74.523C92.43 80.5966 103.198 83.0227 113.703 81.2861C124.207 79.5496 133.622 73.7872 139.947 65.2224C146.272 56.6575 149.01 45.9646 147.579 35.4139C146.149 24.8631 140.662 15.2854 132.285 8.71399C131.448 9.6546 131.002 10.8797 131.04 12.1382C131.077 13.3968 131.594 14.5934 132.485 15.483C138.853 21.8382 142.61 30.3482 143.015 39.3359C143.419 48.3235 140.443 57.1368 134.672 64.0387C128.901 70.9406 120.754 75.4305 111.836 76.6233C102.919 77.8161 93.8782 75.6254 86.4959 70.483C85.769 69.9749 84.9185 69.6722 84.034 69.6067C83.1495 69.5413 82.2637 69.7155 81.4699 70.111L66.9649 77.328L66.3719 78.504C66.155 78.9363 66.0795 79.4259 66.156 79.9034C66.2326 80.381 66.4574 80.8224 66.7987 81.1652C67.1399 81.508 67.5803 81.7348 68.0575 81.8135C68.5347 81.8923 69.0247 81.819 69.4579 81.604L83.6749 74.533L83.6849 74.523Z" fill="#DFE2E6"/>
<path fill-rule="evenodd" clip-rule="evenodd" d="M109.059 28.0119C109.059 28.0119 114.979 21.9809 112.305 19.8959C110.456 18.4539 108.571 20.7599 107.435 19.0819C105.721 16.5589 104.188 16.6499 104.188 16.6499C104.188 16.6499 102.655 16.5599 100.941 19.0819C99.7999 20.7609 97.9259 18.4489 96.0709 19.8959C93.3969 21.9819 99.3179 28.0119 99.3179 28.0119H109.057H109.059Z" fill="#199254"/>
<path fill-rule="evenodd" clip-rule="evenodd" d="M110.034 25.907C109.047 25.4889 108.012 25.1937 106.953 25.028C107.601 24.314 108.027 23.4269 108.179 22.475L106.679 22.189C106.633 22.7979 106.394 23.3764 105.998 23.8408C105.601 24.3051 105.067 24.6313 104.473 24.772C104.373 24.767 104.267 24.767 104.187 24.767C104.107 24.767 104.011 24.772 103.921 24.772C103.322 24.6377 102.782 24.314 102.381 23.8488C101.98 23.3836 101.739 22.8015 101.695 22.189L100.195 22.475C100.351 23.4267 100.778 24.3132 101.426 25.028C100.366 25.1914 99.3313 25.4866 98.345 25.907C98.1463 25.998 97.9604 26.1146 97.792 26.254C98.611 27.289 99.32 28.013 99.32 28.013H109.059C109.059 28.013 109.768 27.289 110.587 26.254C110.419 26.1146 110.233 25.998 110.034 25.907Z" fill="#0E723F"/>
<path fill-rule="evenodd" clip-rule="evenodd" d="M104.189 29.6361H110.682V28.1361C110.681 27.8191 110.587 27.5093 110.413 27.2444C110.24 26.9794 109.993 26.7705 109.702 26.6431C106.166 25.2158 102.213 25.2158 98.6763 26.6431C98.3861 26.7705 98.139 26.9794 97.9651 27.2444C97.7912 27.5093 97.6978 27.8191 97.6963 28.1361V29.6361H104.189Z" fill="#71C152"/>
<path fill-rule="evenodd" clip-rule="evenodd" d="M104.189 27.359H105.717C108.961 27.3595 112.072 28.6484 114.366 30.9423C116.66 33.2361 117.949 36.347 117.949 39.591V47.426C117.949 47.8517 118.033 48.2732 118.196 48.6665C118.359 49.0598 118.598 49.4171 118.899 49.718L120.06 50.879C120.361 51.1799 120.6 51.5372 120.763 51.9305C120.926 52.3238 121.01 52.7453 121.01 53.171V53.176C121.01 54.0354 120.668 54.8595 120.06 55.4672C119.453 56.0748 118.629 56.4165 117.769 56.417H90.6101C89.7507 56.4165 88.9267 56.0748 88.319 55.4672C87.7113 54.8595 87.3697 54.0354 87.3691 53.176V53.171C87.3692 52.7453 87.4531 52.3238 87.6161 51.9305C87.7791 51.5372 88.018 51.1799 88.3191 50.879L89.4801 49.718C89.7813 49.4171 90.0201 49.0598 90.1832 48.6665C90.3462 48.2732 90.4301 47.8517 90.4301 47.426V39.591C90.43 37.9846 90.7463 36.394 91.361 34.9099C91.9756 33.4258 92.8767 32.0773 94.0125 30.9414C95.1484 29.8055 96.4969 28.9045 97.981 28.2898C99.4651 27.6752 101.056 27.3589 102.662 27.359H104.189Z" fill="#199254"/>
<path d="M104.189 47.114C107.567 47.114 110.305 44.3757 110.305 40.998C110.305 37.6202 107.567 34.882 104.189 34.882C100.811 34.882 98.0732 37.6202 98.0732 40.998C98.0732 44.3757 100.811 47.114 104.189 47.114Z" fill="white"/>
<path fill-rule="evenodd" clip-rule="evenodd" d="M104.998 40.23H103.375C103.147 40.23 102.929 40.1395 102.767 39.9783C102.606 39.8171 102.516 39.5985 102.516 39.3705C102.516 39.1426 102.606 38.924 102.767 38.7628C102.929 38.6016 103.147 38.511 103.375 38.511H104.998C105.226 38.511 105.444 38.6015 105.606 38.7626C105.767 38.9237 105.857 39.1422 105.857 39.37H107.385C107.385 38.7371 107.133 38.1303 106.685 37.6827C106.238 37.2352 105.631 36.9836 104.998 36.983H104.953V36.124H103.425V36.983H103.38C102.747 36.983 102.14 37.2345 101.692 37.6822C101.245 38.1298 100.993 38.737 100.993 39.37C100.993 40.0031 101.245 40.6102 101.692 41.0579C102.14 41.5055 102.747 41.757 103.38 41.757H105.003C105.231 41.757 105.45 41.8476 105.611 42.0088C105.772 42.17 105.863 42.3886 105.863 42.6165C105.863 42.8445 105.772 43.0631 105.611 43.2243C105.45 43.3855 105.231 43.476 105.003 43.476H103.38C103.152 43.476 102.934 43.3855 102.773 43.2244C102.612 43.0633 102.521 42.8448 102.521 42.617H100.993C100.994 43.2499 101.245 43.8568 101.693 44.3043C102.14 44.7518 102.747 45.0035 103.38 45.004H103.425V45.863H104.953V45.004H104.998C105.631 45.004 106.238 44.7525 106.686 44.3049C107.134 43.8572 107.385 43.2501 107.385 42.617C107.385 41.984 107.134 41.3768 106.686 40.9292C106.238 40.4815 105.631 40.23 104.998 40.23Z" fill="#199254"/>
</g>
<defs>
<clipPath id="clip0_8_16">
<rect width="147.967" height="81.855" fill="white"/>
</clipPath>
</defs>
</svg>
