<svg width="105" height="105" viewBox="0 0 105 105" fill="none" xmlns="http://www.w3.org/2000/svg">
<g clip-path="url(#clip0_8_102)">
<path fill-rule="evenodd" clip-rule="evenodd" d="M57.6621 24.4651C57.6621 24.4651 70.4061 11.4811 64.6511 6.99209C60.6631 3.87709 56.6121 8.85609 54.1651 5.24609C50.4791 -0.187907 47.1761 0.00109252 47.1761 0.00109252C47.1761 0.00109252 43.8761 -0.191907 40.1871 5.24409C37.7401 8.85409 33.6891 3.87909 29.7011 6.99209C23.9461 11.4811 36.6941 24.4651 36.6941 24.4651H57.6621Z" fill="#481B90"/>
<path fill-rule="evenodd" clip-rule="evenodd" d="M59.769 19.9272C57.3453 18.9092 54.7953 18.223 52.188 17.8872C53.7105 16.4154 54.7087 14.4852 55.03 12.3922L53.313 12.0652C53.173 13.2046 52.7718 14.2963 52.1406 15.2551C51.5093 16.214 50.6652 17.0141 49.674 17.5932C48.674 17.5092 47.814 17.4752 47.181 17.4752C46.548 17.4752 45.699 17.5092 44.713 17.5932C43.7156 17.0197 42.8652 16.2221 42.2291 15.2634C41.593 14.3046 41.1887 13.2111 41.048 12.0692L39.331 12.3962C39.6511 14.4885 40.6496 16.4177 42.173 17.8872C39.5643 18.2225 37.0129 18.9087 34.588 19.9272C34.16 20.1235 33.7593 20.3746 33.396 20.6742C35.159 22.8992 36.696 24.4602 36.696 24.4602H57.668C57.668 24.4602 59.2 22.8982 60.968 20.6742C60.606 20.3728 60.2051 20.1215 59.776 19.9272H59.769Z" fill="#2F0C69"/>
<path fill-rule="evenodd" clip-rule="evenodd" d="M47.1798 27.957H61.1578V24.737C61.154 24.0545 60.9527 23.3877 60.5781 22.8171C60.2035 22.2466 59.6716 21.7967 59.0468 21.522C51.4313 18.4549 42.9242 18.4549 35.3088 21.522C34.6836 21.7977 34.1516 22.2485 33.777 22.8198C33.4024 23.3912 33.2013 24.0588 33.1978 24.742V27.962H47.1798V27.957Z" fill="#199254"/>
<path fill-rule="evenodd" clip-rule="evenodd" d="M47.1809 22.7142H48.9269C52.5987 22.7141 56.2347 23.4372 59.6271 24.8424C63.0195 26.2475 66.1019 28.3071 68.6982 30.9036C71.2946 33.5 73.3541 36.5825 74.7591 39.9749C76.1641 43.3674 76.8871 47.0033 76.8869 50.6752V67.0002C76.886 67.9181 77.0665 68.8271 77.418 69.675C77.7694 70.5229 78.2849 71.2931 78.9349 71.9412L80.0849 73.0872C81.3952 74.3978 82.1318 76.1749 82.1329 78.0282V78.6282C82.1329 79.546 81.9521 80.4548 81.6009 81.3028C81.2496 82.1507 80.7348 82.9212 80.0858 83.5702C79.4369 84.2192 78.6664 84.734 77.8184 85.0852C76.9705 85.4364 76.0617 85.6172 75.1439 85.6172H19.2239C18.3061 85.6172 17.3972 85.4364 16.5493 85.0852C15.7013 84.734 14.9309 84.2192 14.2819 83.5702C13.6329 82.9212 13.1181 82.1507 12.7669 81.3028C12.4156 80.4548 12.2349 79.546 12.2349 78.6282V78.0282C12.234 77.1103 12.4145 76.2013 12.766 75.3534C13.1174 74.5055 13.6329 73.7353 14.2829 73.0872L15.4329 71.9372C16.7426 70.6277 17.4795 68.8523 17.4819 67.0002V50.6712C17.4816 46.9992 18.2047 43.3632 19.6097 39.9707C21.0148 36.5782 23.0744 33.4957 25.6709 30.8992C28.2673 28.3027 31.3498 26.2432 34.7423 24.8381C38.1348 23.433 41.7709 22.7099 45.4429 22.7102H47.1889L47.1809 22.7142Z" fill="#481B90"/>
<path d="M47.1801 66.403C54.9 66.403 61.1581 60.1449 61.1581 52.425C61.1581 44.7052 54.9 38.447 47.1801 38.447C39.4603 38.447 33.2021 44.7052 33.2021 52.425C33.2021 60.1449 39.4603 66.403 47.1801 66.403Z" fill="#199254"/>
<path fill-rule="evenodd" clip-rule="evenodd" d="M48.9271 50.6752H45.4271C44.964 50.6752 44.5199 50.4912 44.1925 50.1638C43.865 49.8364 43.6811 49.3923 43.6811 48.9292C43.6811 48.4661 43.865 48.022 44.1925 47.6946C44.5199 47.3671 44.964 47.1832 45.4271 47.1832H48.9271C49.3898 47.1842 49.8333 47.3685 50.1605 47.6957C50.4877 48.023 50.672 48.4664 50.6731 48.9292H54.1731C54.172 47.539 53.6193 46.206 52.6363 45.223C51.6532 44.24 50.3203 43.6872 48.9301 43.6862V41.9402H45.4301V43.6862C44.0395 43.6862 42.706 44.2386 41.7227 45.2218C40.7395 46.2051 40.1871 47.5387 40.1871 48.9292C40.1871 50.3197 40.7395 51.6533 41.7227 52.6366C42.706 53.6198 44.0395 54.1722 45.4301 54.1722H48.9301C49.3931 54.1722 49.8372 54.3561 50.1647 54.6836C50.4921 55.011 50.6761 55.4551 50.6761 55.9182C50.6761 56.3813 50.4921 56.8254 50.1647 57.1528C49.8372 57.4802 49.3931 57.6642 48.9301 57.6642H45.4301C44.9673 57.6631 44.5238 57.4788 44.1966 57.1516C43.8694 56.8244 43.6851 56.3809 43.6841 55.9182H40.1841C40.1851 57.3084 40.7379 58.6413 41.7209 59.6244C42.7039 60.6074 44.0369 61.1601 45.4271 61.1612V62.9072H48.9271V61.1612C50.3176 61.1612 51.6512 60.6088 52.6344 59.6255C53.6177 58.6423 54.1701 57.3087 54.1701 55.9182C54.1701 54.5277 53.6177 53.1941 52.6344 52.2108C51.6512 51.2276 50.3176 50.6752 48.9271 50.6752Z" fill="white"/>
<path d="M90.866 73.3931H85.623V103.1H90.866V73.3931Z" fill="#EDEFF1"/>
<path d="M104.844 71.647H90.8657V104.851H104.844V71.647Z" fill="#199254"/>
<path fill-rule="evenodd" clip-rule="evenodd" d="M82.1299 75.1431C79.6159 70.2151 72.6099 68.1541 68.1519 68.1541C63.6939 68.1541 57.6119 70.0681 54.1739 75.1431H38.4449C37.0544 75.1431 35.7208 75.6954 34.7376 76.6787C33.7543 77.6619 33.2019 78.9955 33.2019 80.3861C33.2019 81.7766 33.7543 83.1102 34.7376 84.0934C35.7208 85.0767 37.0544 85.6291 38.4449 85.6291H33.2019L11.3529 72.6451C9.81267 71.7217 7.9762 71.4264 6.22412 71.8204C4.47205 72.2143 2.93872 73.2673 1.94193 74.7611L0.586932 76.7931C0.0737392 77.5649 -0.112346 78.5088 0.0695009 79.4176C0.251348 80.3265 0.786276 81.1261 1.55693 81.6411L29.6929 100.184C30.837 100.949 32.1824 101.358 33.5589 101.359H85.6229V75.1471H82.1229L82.1299 75.1431Z" fill="#77563F"/>
<path fill-rule="evenodd" clip-rule="evenodd" d="M34.5581 83.8792C35.0455 84.4277 35.6435 84.8668 36.3127 85.1678C36.982 85.4687 37.7073 85.6246 38.4411 85.6252H55.9181V83.8792H34.5581Z" fill="#5D4331"/>
<path d="M90.8651 73.3931H89.1191V103.1H90.8651V73.3931Z" fill="#DFE2E6"/>
</g>
<defs>
<clipPath id="clip0_8_102">
<rect width="104.844" height="104.85" fill="white"/>
</clipPath>
</defs>
</svg>
