<svg width="88" height="88" viewBox="0 0 88 88" fill="none" xmlns="http://www.w3.org/2000/svg">
<g clip-path="url(#clip0_8_33)">
<path fill-rule="evenodd" clip-rule="evenodd" d="M66.7642 8.70795C66.7887 6.41474 67.717 4.2238 69.3473 2.61087C70.9776 0.997947 73.1783 0.0932617 75.4717 0.0932617C77.765 0.0932617 79.9658 0.997947 81.5961 2.61087C83.2264 4.2238 84.1546 6.41474 84.1792 8.70795H66.7642Z" fill="#D3D3D3"/>
<path fill-rule="evenodd" clip-rule="evenodd" d="M58.057 87.084C56.9133 87.0844 55.7808 86.8594 54.7241 86.4219C53.6674 85.9844 52.7073 85.343 51.8986 84.5343C51.0899 83.7257 50.4485 82.7655 50.0111 81.7088C49.5736 80.6522 49.3486 79.5196 49.349 78.376H5.1717e-07C-0.00039369 79.5196 0.224576 80.6522 0.662055 81.7088C1.09953 82.7655 1.74094 83.7257 2.54964 84.5343C3.35833 85.343 4.31845 85.9844 5.37513 86.4219C6.43181 86.8594 7.56434 87.0844 8.708 87.084H58.057Z" fill="#D3D3D3"/>
<path fill-rule="evenodd" clip-rule="evenodd" d="M49.3488 78.376C49.3734 80.6692 50.3016 82.8602 51.9319 84.4731C53.5622 86.086 55.763 86.9907 58.0563 86.9907C60.3497 86.9907 62.5504 86.086 64.1807 84.4731C65.8111 82.8602 66.7393 80.6692 66.7638 78.376V8.708C66.7634 7.56434 66.9884 6.43181 67.4259 5.37513C67.8634 4.31845 68.5048 3.35833 69.3135 2.54964C70.1222 1.74094 71.0823 1.09953 72.139 0.662055C73.1957 0.224576 74.3282 -0.00039369 75.4718 5.1717e-07H20.3188C19.1752 -0.00039369 18.0426 0.224576 16.986 0.662055C15.9293 1.09953 14.9692 1.74094 14.1605 2.54964C13.3518 3.35833 12.7104 4.31845 12.2729 5.37513C11.8354 6.43181 11.6104 7.56434 11.6108 8.708V78.376H49.3488Z" fill="#EDEFF1"/>
<path fill-rule="evenodd" clip-rule="evenodd" d="M75.7401 60.13C75.7401 60.13 81.3551 54.409 78.8211 52.43C77.0651 51.059 75.2792 53.253 74.1992 51.66C72.5752 49.266 71.1181 49.349 71.1181 49.349C71.1181 49.349 69.6601 49.266 68.0371 51.66C66.9571 53.25 65.1751 51.06 63.4151 52.43C60.8771 54.409 66.4961 60.13 66.4961 60.13H75.7401Z" fill="#199254"/>
<path fill-rule="evenodd" clip-rule="evenodd" d="M76.6689 58.129C75.7336 57.7297 74.7515 57.4504 73.7459 57.298C74.3594 56.6187 74.7645 55.7773 74.9129 54.874L73.4889 54.6021C73.4446 55.1807 73.2171 55.7301 72.8396 56.1708C72.462 56.6115 71.9539 56.9205 71.3889 57.053C71.2949 57.053 71.1959 57.045 71.1169 57.045C71.0379 57.045 70.9509 57.045 70.8639 57.053C70.2954 56.9249 69.783 56.6175 69.4023 56.1763C69.0215 55.7351 68.7925 55.1832 68.7489 54.6021L67.3249 54.874C67.4718 55.7778 67.8771 56.6197 68.4919 57.298C67.4874 57.455 66.5058 57.7341 65.5689 58.129C65.3805 58.2157 65.2041 58.3262 65.0439 58.458C65.8219 59.44 66.4939 60.127 66.4939 60.127H75.7379C75.7379 60.127 76.4139 59.44 77.1879 58.458C77.0278 58.3262 76.8514 58.2157 76.6629 58.129H76.6689Z" fill="#0F7340"/>
<path fill-rule="evenodd" clip-rule="evenodd" d="M71.118 61.671H77.281V60.251C77.2785 59.9496 77.1891 59.6554 77.0237 59.4036C76.8582 59.1517 76.6236 58.9529 76.348 58.831C72.9919 57.4816 69.2441 57.4816 65.888 58.831C65.6122 58.9523 65.3776 59.151 65.2127 59.4031C65.0478 59.6552 64.9596 59.9497 64.959 60.251V61.671H71.122H71.118Z" fill="#086033"/>
<path fill-rule="evenodd" clip-rule="evenodd" d="M71.1178 59.507H72.5678C75.6469 59.5075 78.5998 60.7308 80.7771 62.908C82.9545 65.0851 84.178 68.0379 84.1788 71.117V78.552C84.1786 79.3676 84.5023 80.15 85.0788 80.727L86.1788 81.827C86.7553 82.404 87.0791 83.1863 87.0788 84.002C87.0786 84.818 86.7543 85.6005 86.1773 86.1774C85.6003 86.7544 84.8178 87.0787 84.0018 87.079H58.2298C57.4138 87.0787 56.6314 86.7544 56.0544 86.1774C55.4774 85.6005 55.1531 84.818 55.1528 84.002C55.1526 83.1863 55.4763 82.404 56.0528 81.827L57.1528 80.727C57.4383 80.4413 57.6648 80.1022 57.8192 79.729C57.9736 79.3558 58.053 78.9558 58.0528 78.552V71.117C58.0534 68.0377 59.2768 65.0847 61.4542 62.9073C63.6316 60.73 66.5846 59.5065 69.6638 59.506L71.1178 59.507Z" fill="#199254"/>
<path d="M71.118 78.255C74.3234 78.255 76.922 75.6564 76.922 72.451C76.922 69.2455 74.3234 66.647 71.118 66.647C67.9125 66.647 65.314 69.2455 65.314 72.451C65.314 75.6564 67.9125 78.255 71.118 78.255Z" fill="white"/>
<path fill-rule="evenodd" clip-rule="evenodd" d="M71.8879 71.726H70.3469C70.1356 71.7186 69.9353 71.6294 69.7885 71.4773C69.6416 71.3252 69.5595 71.1219 69.5595 70.9105C69.5595 70.699 69.6416 70.4958 69.7885 70.3437C69.9353 70.1915 70.1356 70.1024 70.3469 70.095H71.8879C72.1042 70.0952 72.3116 70.1813 72.4646 70.3343C72.6176 70.4872 72.7036 70.6946 72.7039 70.911H74.1539C74.1536 70.3101 73.9148 69.7339 73.4899 69.309C73.065 68.8841 72.4888 68.6452 71.8879 68.645H71.8429V67.829H70.3879V68.645H70.3429C70.0414 68.6386 69.7416 68.6926 69.4612 68.8036C69.1808 68.9146 68.9254 69.0804 68.7099 69.2914C68.4944 69.5024 68.3232 69.7543 68.2064 70.0323C68.0895 70.3103 68.0293 70.6089 68.0293 70.9105C68.0293 71.2121 68.0895 71.5106 68.2064 71.7886C68.3232 72.0666 68.4944 72.3185 68.7099 72.5295C68.9254 72.7405 69.1808 72.9064 69.4612 73.0174C69.7416 73.1284 70.0414 73.1823 70.3429 73.176H71.8879C71.9971 73.1721 72.106 73.1903 72.2081 73.2295C72.3101 73.2687 72.4032 73.328 72.4818 73.4039C72.5605 73.4798 72.623 73.5708 72.6657 73.6714C72.7084 73.772 72.7304 73.8802 72.7304 73.9895C72.7304 74.0988 72.7084 74.2069 72.6657 74.3076C72.623 74.4082 72.5605 74.4991 72.4818 74.5751C72.4032 74.651 72.3101 74.7103 72.2081 74.7494C72.106 74.7886 71.9971 74.8068 71.8879 74.803H70.3469C70.2397 74.8031 70.1335 74.7821 70.0345 74.7411C69.9354 74.7002 69.8454 74.6401 69.7696 74.5643C69.6938 74.4885 69.6337 74.3985 69.5927 74.2994C69.5518 74.2003 69.5308 74.0942 69.5309 73.987H68.0809C68.0812 74.5879 68.32 75.1641 68.7449 75.589C69.1698 76.0139 69.746 76.2527 70.3469 76.253H70.3919V77.069H71.8459V76.253H71.8909C72.4835 76.2405 73.0476 75.9964 73.4623 75.5729C73.877 75.1494 74.1093 74.5802 74.1093 73.9875C74.1093 73.3947 73.877 72.8256 73.4623 72.4021C73.0476 71.9786 72.4835 71.7344 71.8909 71.722L71.8879 71.726Z" fill="#199254"/>
<path fill-rule="evenodd" clip-rule="evenodd" d="M25.3968 23.947H15.2358V13.786H25.3968V23.947ZM16.6858 22.497H23.9438V15.24H16.6858V22.497Z" fill="#D3D3D3"/>
<path fill-rule="evenodd" clip-rule="evenodd" d="M20.3191 22.3729L16.3921 18.4419L18.4421 16.3919L20.3191 18.2689L26.5491 12.0389L28.6031 14.0889L20.3191 22.3729Z" fill="#199254"/>
<path fill-rule="evenodd" clip-rule="evenodd" d="M25.3968 38.463H15.2358V28.302H25.3968V38.463ZM16.6858 37.013H23.9438V29.752H16.6858V37.013Z" fill="#D3D3D3"/>
<path fill-rule="evenodd" clip-rule="evenodd" d="M20.3191 36.888L16.3921 32.957L18.4421 30.903L20.3191 32.783L26.5491 26.549L28.6031 28.603L20.3191 36.888Z" fill="#199254"/>
<path fill-rule="evenodd" clip-rule="evenodd" d="M25.3968 52.978H15.2358V42.817H25.3968V52.978ZM16.6858 51.527H23.9438V44.269H16.6858V51.527Z" fill="#D3D3D3"/>
<path fill-rule="evenodd" clip-rule="evenodd" d="M20.3191 51.4L16.3921 47.473L18.4421 45.419L20.3191 47.296L26.5491 41.066L28.6031 43.116L20.3191 51.4Z" fill="#199254"/>
<path fill-rule="evenodd" clip-rule="evenodd" d="M25.3968 67.489H15.2358V57.328H25.3968V67.489ZM16.6888 66.039H23.9468V58.781H16.6858L16.6888 66.039Z" fill="#D3D3D3"/>
<path fill-rule="evenodd" clip-rule="evenodd" d="M20.3191 65.9151L16.3921 61.9841L18.4421 59.9341L20.3191 61.8111L26.5491 55.5811L28.6031 57.6311L20.3191 65.9151Z" fill="#199254"/>
<path d="M62.41 14.515H30.48V17.419H62.41V14.515Z" fill="#D3D3D3"/>
<path d="M46.445 20.319H30.48V23.223H46.445V20.319Z" fill="#D3D3D3"/>
<path d="M62.41 29.03H30.48V31.934H62.41V29.03Z" fill="#D3D3D3"/>
<path d="M46.445 34.834H30.48V37.738H46.445V34.834Z" fill="#D3D3D3"/>
<path d="M62.41 43.542H30.48V46.446H62.41V43.542Z" fill="#D3D3D3"/>
<path d="M46.445 49.349H30.48V52.253H46.445V49.349Z" fill="#D3D3D3"/>
<path d="M62.41 58.057H30.48V60.961H62.41V58.057Z" fill="#D3D3D3"/>
<path d="M46.445 63.861H30.48V66.765H46.445V63.861Z" fill="#D3D3D3"/>
</g>
<defs>
<clipPath id="clip0_8_33">
<rect width="87.083" height="87.083" fill="white"/>
</clipPath>
</defs>
</svg>
